<svg width="17" height="17" viewBox="0 0 17 17" fill="none" xmlns="http://www.w3.org/2000/svg">
<g id="add file" clip-path="url(#clip0_201_5561)">
<g id="Group">
<g id="03 Login">
<path id="Vector" d="M8.5 17C8.27985 17 8.06872 16.9125 7.91305 16.7569C7.75738 16.6012 7.66992 16.3901 7.66992 16.1699V0.830078C7.66992 0.609928 7.75738 0.398794 7.91305 0.243124C8.06872 0.0874544 8.27985 0 8.5 0C8.72015 0 8.93128 0.0874544 9.08695 0.243124C9.24262 0.398794 9.33008 0.609928 9.33008 0.830078V16.1699C9.33008 16.3901 9.24262 16.6012 9.08695 16.7569C8.93128 16.9125 8.72015 17 8.5 17Z" fill="#6E6E6E"/>
<path id="Vector_2" d="M16.1699 9.33008H0.830078C0.609928 9.33008 0.398794 9.24262 0.243124 9.08695C0.0874544 8.93128 0 8.72015 0 8.5C0 8.27985 0.0874544 8.06872 0.243124 7.91305C0.398794 7.75738 0.609928 7.66992 0.830078 7.66992H16.1699C16.3901 7.66992 16.6012 7.75738 16.7569 7.91305C16.9125 8.06872 17 8.27985 17 8.5C17 8.72015 16.9125 8.93128 16.7569 9.08695C16.6012 9.24262 16.3901 9.33008 16.1699 9.33008Z" fill="#6E6E6E"/>
</g>
</g>
</g>
<defs>
<clipPath id="clip0_201_5561">
<rect width="17" height="17" fill="white"/>
</clipPath>
</defs>
</svg>
