<svg width="35" height="35" viewBox="0 0 35 35" fill="none" xmlns="http://www.w3.org/2000/svg">
<g id="Frame" clip-path="url(#clip0_172_4297)">
<g id="Group">
<path id="Vector" d="M17.5002 0C7.83511 0 0 7.8344 0 17.5002C0 27.1645 7.83511 34.9996 17.5002 34.9996C27.1649 34.9996 35 27.1645 35 17.5002C35 7.83433 27.1649 0 17.5002 0Z" fill="#3DC9EB"/>
<path id="Vector_2" d="M27.8511 26.9986C27.3353 25.0743 22.9197 23.5186 17.4762 23.5186C12.0328 23.5186 7.66419 25.0743 7.14839 26.9986C6.91849 27.8563 6.65728 29.4811 6.43408 31.0565C9.44954 33.5209 13.3018 34.9996 17.5 34.9996C21.6979 34.9996 25.55 33.5209 28.5654 31.0566C28.3422 29.4812 28.081 27.8563 27.8511 26.9986Z" fill="#615C58"/>
<path id="Vector_3" d="M17.4824 22.3613L14.6943 22.7317L14.8256 23.6604L17.4794 25.6408L20.1744 23.6604L20.3057 22.7317L17.4824 22.3613Z" fill="#969899"/>
<path id="Vector_4" d="M17.4824 22.3613L14.8257 23.6605C14.8257 23.6605 16.0128 25.6408 17.4795 25.6408C18.9462 25.6408 20.1745 23.6605 20.1745 23.6605L17.4824 22.3613Z" fill="#7F3E09"/>
<path id="Vector_5" d="M17.4794 24.8829C16.0388 24.8829 15.3186 24.2855 15.0153 23.9259L17.5053 27.5165L20.0287 23.8629C19.7482 24.2102 19.008 24.8829 17.4794 24.8829ZM15.0153 23.9259L14.8311 23.6602C14.8311 23.6602 14.8849 23.7712 15.0153 23.9259ZM20.0287 23.8629C20.1264 23.7421 20.1687 23.6602 20.1687 23.6602L20.0287 23.8629Z" fill="#261D17"/>
<path id="Vector_6" d="M20.2436 19.9014H14.7568C15.6129 22.4824 14.8258 23.6608 14.8258 23.6608L16.7243 24.8836H18.2762L20.1746 23.6609C20.1746 23.6609 19.3875 22.4824 20.2436 19.9014Z" fill="#E2A176"/>
<path id="Vector_7" d="M20.3057 22.7314L17.4986 24.883C17.4986 24.883 19.8991 25.3069 19.911 25.2951L21.5679 23.8281L20.3057 22.7314ZM14.6944 22.7314L13.4321 23.8282L15.0891 25.2952C15.1009 25.3069 17.4986 24.883 17.4986 24.883L14.6944 22.7314Z" fill="#F3FAFF"/>
<path id="Vector_8" d="M17.5 4.34375C14.0617 4.34375 11.2744 5.83691 11.2744 12.357C11.2744 14.5626 11.7111 16.2908 12.3651 17.6246C13.8039 20.559 16.2943 21.5846 17.5 21.5846C18.7057 21.5846 21.1962 20.559 22.6348 17.6246C23.2888 16.2908 23.7255 14.5626 23.7255 12.357C23.7255 5.83691 20.9382 4.34375 17.5 4.34375Z" fill="#F4B382"/>
<path id="Vector_9" d="M24.6663 10.8022C24.6663 10.8022 25.2315 9.70622 23.7928 8.75319C23.7928 8.75319 24.5122 8.61034 24.6149 8.94387C24.6149 8.94387 24.2552 7.18088 23.1762 6.70437C23.1762 6.70437 23.6387 6.56145 24.2552 7.18088C24.2552 7.18088 23.9983 5.84672 22.4571 5.41789C22.4571 5.41789 22.7653 5.27498 23.279 5.51327C23.279 5.51327 22.868 4.65555 21.5835 4.36964C21.5835 4.36964 21.4808 3.94089 22.0459 3.9885C22.0459 3.9885 20.9157 3.46437 19.8368 3.41669C19.8368 3.41669 20.1965 2.65441 20.8129 2.65441C20.8129 2.65441 19.3229 2.22558 18.2954 2.79726C18.2954 2.79726 17.7302 2.55904 18.0899 2.36843C18.0899 2.36843 15.3155 2.27313 15.1614 3.75028C15.1614 3.75028 14.3907 3.70259 13.7228 3.36907C13.7228 3.36907 13.0549 3.84558 13.6714 4.41733C13.6714 4.41733 12.0787 4.46501 11.3594 5.60857C11.3594 5.60857 11.7191 5.46565 12.1814 5.51327C12.1814 5.51327 10.9484 6.13263 10.7942 7.18095C10.7942 7.18095 11.1538 7.03803 11.5649 7.08558C11.5649 7.08558 10.8456 7.5144 10.5374 8.37205C10.5374 8.37205 10.8456 8.27675 11.308 8.22921C11.308 8.22921 9.71533 9.46807 9.71533 11.231C9.71533 11.231 10.3319 10.278 10.6915 10.278C10.6915 10.278 10.4859 11.8027 10.8971 13.5181C10.8971 13.5181 11.1539 12.7081 11.4108 12.7557C11.4108 12.7557 11.3594 14.0898 12.1815 14.9952C12.1815 14.9952 12.1815 11.8981 12.7466 11.8503C12.7466 11.8503 13.0549 12.2792 13.4146 12.5651C13.4146 12.5651 12.7466 8.80102 14.3908 8.51504C14.3908 8.51504 14.9045 11.3264 16.9083 11.7075C16.9083 11.7075 16.2404 9.70629 16.2918 8.94394C16.2918 8.94394 18.4497 9.94451 19.1177 11.9457C19.1177 11.9457 19.3745 10.8498 19.0149 9.18216C19.0149 9.18216 20.0938 9.75383 19.9911 11.6599C19.9911 11.6599 20.8131 11.3263 20.8645 10.2304C20.8645 10.2304 21.5324 11.2786 21.2242 12.3745C21.2242 12.3745 21.3784 12.6128 21.6866 12.0886C21.6866 12.0886 22.9319 12.7026 22.8614 14.7092C22.8614 14.7092 24.1633 13.0553 23.7608 11.3739C23.7608 11.3739 24.1297 12.2792 24.0783 12.8987C24.0783 12.8987 24.4096 11.5168 24.05 9.89682C24.0498 9.89682 24.5122 10.278 24.6663 10.8022Z" fill="#261D17"/>
<path id="Vector_10" d="M14.9606 12.625C13.7788 12.625 12.8208 12.8316 12.8208 14.3072C12.8208 15.2363 13.3521 16.1666 14.9606 16.1666C16.1422 16.1666 17.1002 15.2363 17.1002 14.3072C17.1002 13.3782 16.1422 12.625 14.9606 12.625ZM14.9606 15.8002C13.6849 15.8002 13.2635 15.0624 13.2635 14.3256C13.2635 13.1552 14.0233 12.9913 14.9606 12.9913C15.8978 12.9913 16.6576 13.5887 16.6576 14.3256C16.6576 15.0624 15.8978 15.8002 14.9606 15.8002Z" fill="#261D17"/>
<path id="Vector_11" d="M14.9603 12.9912C14.023 12.9912 13.2632 13.1551 13.2632 14.3254C13.2632 15.0623 13.6846 15.8001 14.9603 15.8001C15.8975 15.8001 16.6573 15.0623 16.6573 14.3254C16.6573 13.5886 15.8975 12.9912 14.9603 12.9912Z" fill="#F4C4A4"/>
<path id="Vector_12" d="M14.9603 12.9912C14.023 12.9912 13.2632 13.1551 13.2632 14.3254C13.2632 14.9434 13.5598 15.5616 14.4077 15.7452L15.4233 13.0419C15.2712 13.0081 15.116 12.9911 14.9603 12.9912Z" fill="#F4CCB0"/>
<path id="Vector_13" d="M15.4232 13.042L14.4077 15.7453C14.5709 15.7806 14.7543 15.8001 14.9603 15.8001C15.8975 15.8001 16.6573 15.0623 16.6573 14.3254C16.6573 13.7149 16.1354 13.2005 15.4232 13.042Z" fill="#F4C4A4"/>
<path id="Vector_14" d="M13.2352 13.4531L12.4123 12.5595C12.3742 12.5182 12.3214 12.4937 12.2653 12.4914C12.2092 12.4891 12.1545 12.5092 12.1132 12.5472C12.0719 12.5852 12.0474 12.6381 12.0451 12.6942C12.0428 12.7503 12.0629 12.805 12.1009 12.8463L12.9238 13.7398C12.9436 13.7614 12.9677 13.7786 12.9945 13.7904C13.0213 13.8021 13.0503 13.8082 13.0796 13.8081C13.1207 13.8081 13.1609 13.7961 13.1953 13.7736C13.2297 13.7511 13.2568 13.719 13.2733 13.6814C13.2898 13.6437 13.295 13.6021 13.2882 13.5616C13.2815 13.521 13.263 13.4833 13.2352 13.4531ZM22.9342 12.5472C22.9137 12.5284 22.8898 12.5138 22.8637 12.5042C22.8376 12.4946 22.8099 12.4902 22.7821 12.4914C22.7543 12.4925 22.7271 12.4991 22.7018 12.5108C22.6766 12.5225 22.654 12.5391 22.6351 12.5595L21.8122 13.4531C21.7744 13.4944 21.7546 13.549 21.757 13.605C21.7594 13.6609 21.7839 13.7136 21.8251 13.7515C21.8663 13.7894 21.9208 13.8095 21.9768 13.8073C22.0327 13.8051 22.0855 13.7808 22.1236 13.7398L22.9465 12.8462C22.9653 12.8258 22.9799 12.8018 22.9895 12.7757C22.9991 12.7496 23.0034 12.7219 23.0023 12.6942C23.0011 12.6664 22.9945 12.6391 22.9828 12.6139C22.9711 12.5887 22.9546 12.5661 22.9342 12.5472Z" fill="#261D17"/>
<path id="Vector_15" d="M20.0396 12.625C18.8579 12.625 17.8999 13.3782 17.8999 14.3072C17.8999 15.2363 18.8579 16.1666 20.0396 16.1666C21.6481 16.1666 22.1793 15.2363 22.1793 14.3072C22.1793 12.8316 21.2214 12.625 20.0396 12.625ZM20.0396 15.8002C19.1024 15.8002 18.3426 15.0624 18.3426 14.3256C18.3426 13.5887 19.1024 12.9913 20.0396 12.9913C20.9769 12.9913 21.7367 13.1552 21.7367 14.3256C21.7367 15.0624 21.3153 15.8002 20.0396 15.8002Z" fill="#261D17"/>
<path id="Vector_16" d="M20.0393 12.9912C19.1021 12.9912 18.3423 13.5886 18.3423 14.3254C18.3423 15.0623 19.1021 15.8001 20.0393 15.8001C21.315 15.8001 21.7364 15.0623 21.7364 14.3254C21.7364 13.1551 20.9766 12.9912 20.0393 12.9912Z" fill="#F4C4A4"/>
<path id="Vector_17" d="M20.0397 12.9912C19.8792 12.9912 19.724 13.0091 19.5768 13.0419C18.8646 13.2004 18.3428 13.7148 18.3428 14.3254C18.3428 14.935 18.8628 15.5447 19.5729 15.7373L20.5938 13.02C20.42 12.9985 20.2338 12.9912 20.0397 12.9912Z" fill="#F4CCB0"/>
<path id="Vector_18" d="M20.5936 13.0205L19.5728 15.7379C19.7249 15.7794 19.8819 15.8005 20.0396 15.8006C20.2456 15.8006 20.4289 15.7812 20.5922 15.7458C21.4401 15.5622 21.7367 14.9439 21.7367 14.326C21.7367 13.3979 21.2587 13.1029 20.5936 13.0205Z" fill="#F4C4A4"/>
<path id="Vector_19" d="M18.431 13.8057H16.5685C16.5514 13.8057 16.9066 14.5405 16.9203 14.5405L18.257 14.5404C18.2709 14.5404 18.4483 13.8057 18.431 13.8057Z" fill="#261D17"/>
<path id="Vector_20" d="M18.1395 14.5487C17.9548 14.4185 17.7309 14.29 17.4924 14.29C17.3106 14.29 17.1375 14.3877 16.9837 14.4656C16.7419 14.5878 16.7417 15.2526 16.7417 15.2526C16.8796 14.9646 17.1745 14.7785 17.4924 14.7785C17.8103 14.7785 18.1051 14.9646 18.2431 15.2526C18.2431 15.2526 18.3164 14.6734 18.1395 14.5487Z" fill="#261D17"/>
<path id="Vector_21" d="M11.3853 12.5576C10.79 12.6594 10.3373 12.9158 10.6731 14.88C11.0088 16.8442 11.426 16.9357 12.0213 16.8339L11.3853 12.5576ZM23.6218 12.5576L22.9858 16.8339C23.581 16.9357 23.998 16.8443 24.3339 14.88C24.6698 12.9158 24.217 12.6594 23.6218 12.5576Z" fill="#F4B382"/>
</g>
</g>
<defs>
<clipPath id="clip0_172_4297">
<rect width="35" height="35" fill="white"/>
</clipPath>
</defs>
</svg>
