<svg width="20" height="20" viewBox="0 0 20 20" fill="none" xmlns="http://www.w3.org/2000/svg">
<g id="Frame">
<g id="Group">
<path id="Vector" d="M16.6886 1.6543H13.6568V1.44176C13.6568 1.35888 13.6238 1.27939 13.5652 1.22079C13.5066 1.16218 13.4271 1.12926 13.3443 1.12926H11.6637C11.3974 0.453516 10.7448 0 9.99993 0C9.25505 0 8.60247 0.453516 8.33614 1.12926H6.6556C6.57272 1.12926 6.49323 1.16218 6.43463 1.22079C6.37602 1.27939 6.3431 1.35888 6.3431 1.44176V1.6543H3.31126C2.65997 1.6543 2.13013 2.18414 2.13013 2.83547V18.8189C2.13009 19.4702 2.65997 20 3.31126 20H16.6886C17.3399 20 17.8697 19.4702 17.8697 18.8189V2.83547C17.8698 2.18418 17.3399 1.6543 16.6886 1.6543ZM6.9681 1.75426H8.56442C8.63456 1.75426 8.70266 1.73067 8.75776 1.68728C8.81286 1.64388 8.85177 1.58322 8.86821 1.51504C8.99462 0.991016 9.46001 0.625 9.99993 0.625C10.5399 0.625 11.0052 0.991016 11.1316 1.51504C11.1481 1.58322 11.187 1.64388 11.2421 1.68728C11.2972 1.73067 11.3653 1.75426 11.4354 1.75426H13.0318V3.38777H6.9681V1.75426ZM13.3443 4.01277C13.4271 4.01277 13.5066 3.97985 13.5652 3.92124C13.6238 3.86264 13.6568 3.78315 13.6568 3.70027V3.48773H16.0363V18.1666H3.96353V3.48773H6.3431V3.70027C6.3431 3.78315 6.37602 3.86264 6.43463 3.92124C6.49323 3.97985 6.57272 4.01277 6.6556 4.01277H13.3443ZM17.2448 18.8189C17.2448 19.1255 16.9953 19.375 16.6886 19.375H3.31126C3.00458 19.375 2.75513 19.1255 2.75513 18.8189V2.83547C2.75513 2.52879 3.00462 2.2793 3.31126 2.2793H6.3431V2.86273H3.65103C3.56815 2.86273 3.48866 2.89566 3.43005 2.95426C3.37145 3.01287 3.33853 3.09235 3.33853 3.17523V18.4791C3.33853 18.562 3.37145 18.6415 3.43005 18.7001C3.48866 18.7587 3.56815 18.7916 3.65103 18.7916H16.3488C16.4317 18.7916 16.5112 18.7587 16.5698 18.7001C16.6284 18.6415 16.6613 18.562 16.6613 18.4791V3.17523C16.6613 3.09235 16.6284 3.01287 16.5698 2.95426C16.5112 2.89566 16.4317 2.86273 16.3488 2.86273H13.6568V2.2793H16.6886C16.9953 2.2793 17.2447 2.52879 17.2447 2.83547L17.2448 18.8189ZM10.3906 1.52309C10.3906 1.73824 10.2151 1.91371 9.99993 1.91371C9.78478 1.91371 9.60931 1.73824 9.60931 1.52309C9.60931 1.30793 9.78478 1.13246 9.99993 1.13246C10.2151 1.13246 10.3906 1.30793 10.3906 1.52309ZM9.61677 7.45356C9.61677 7.37067 9.64969 7.29119 9.7083 7.23258C9.7669 7.17398 9.84639 7.14106 9.92927 7.14106H12.7463C12.8292 7.14106 12.9087 7.17398 12.9673 7.23258C13.0259 7.29119 13.0588 7.37067 13.0588 7.45356C13.0588 7.53644 13.0259 7.61592 12.9673 7.67453C12.9087 7.73313 12.8292 7.76606 12.7463 7.76606H9.92927C9.84639 7.76606 9.7669 7.73313 9.7083 7.67453C9.64969 7.61592 9.61677 7.53644 9.61677 7.45356ZM9.61677 5.70785C9.61677 5.62497 9.64969 5.54549 9.7083 5.48688C9.7669 5.42828 9.84639 5.39535 9.92927 5.39535H14.4799C14.5628 5.39535 14.6423 5.42828 14.7009 5.48688C14.7595 5.54549 14.7924 5.62497 14.7924 5.70785C14.7924 5.79073 14.7595 5.87022 14.7009 5.92882C14.6423 5.98743 14.5628 6.02035 14.4799 6.02035H9.92927C9.84639 6.02035 9.7669 5.98743 9.7083 5.92882C9.64969 5.87022 9.61677 5.79073 9.61677 5.70785ZM9.61677 10.0816C9.61677 9.99876 9.64969 9.91928 9.7083 9.86067C9.7669 9.80206 9.84639 9.76914 9.92927 9.76914H14.4799C14.5628 9.76914 14.6423 9.80206 14.7009 9.86067C14.7595 9.91928 14.7924 9.99876 14.7924 10.0816C14.7924 10.1645 14.7595 10.244 14.7009 10.3026C14.6423 10.3612 14.5628 10.3941 14.4799 10.3941H9.92927C9.84639 10.3941 9.7669 10.3612 9.7083 10.3026C9.64969 10.244 9.61677 10.1645 9.61677 10.0816ZM9.61677 11.8273C9.61677 11.7444 9.64969 11.6649 9.7083 11.6063C9.7669 11.5477 9.84639 11.5148 9.92927 11.5148H12.7463C12.8292 11.5148 12.9087 11.5477 12.9673 11.6063C13.0259 11.6649 13.0588 11.7444 13.0588 11.8273C13.0588 11.9102 13.0259 11.9897 12.9673 12.0483C12.9087 12.1069 12.8292 12.1398 12.7463 12.1398H9.92927C9.84639 12.1398 9.7669 12.1069 9.7083 12.0483C9.64969 11.9897 9.61677 11.9102 9.61677 11.8273ZM9.61677 16.2011C9.61677 16.1182 9.64969 16.0387 9.7083 15.9801C9.7669 15.9215 9.84639 15.8886 9.92927 15.8886H12.7463C12.8292 15.8886 12.9087 15.9215 12.9673 15.9801C13.0259 16.0387 13.0588 16.1182 13.0588 16.2011C13.0588 16.284 13.0259 16.3635 12.9673 16.4221C12.9087 16.4807 12.8292 16.5136 12.7463 16.5136H9.92927C9.84639 16.5136 9.7669 16.4807 9.7083 16.4221C9.64969 16.3635 9.61677 16.284 9.61677 16.2011ZM9.61677 14.4554C9.61677 14.3725 9.64969 14.2931 9.7083 14.2345C9.7669 14.1759 9.84639 14.1429 9.92927 14.1429H14.4799C14.5628 14.1429 14.6423 14.1759 14.7009 14.2345C14.7595 14.2931 14.7924 14.3725 14.7924 14.4554C14.7924 14.5383 14.7595 14.6178 14.7009 14.6764C14.6423 14.735 14.5628 14.7679 14.4799 14.7679H9.92927C9.84639 14.7679 9.7669 14.735 9.7083 14.6764C9.64969 14.6178 9.61677 14.5383 9.61677 14.4554ZM5.75915 5.78945C5.75896 6.04249 5.84547 6.28796 6.00427 6.48496C5.56177 6.71148 5.21661 7.10934 5.06138 7.61078C4.99735 7.8175 5.03431 8.03602 5.16274 8.21027C5.29118 8.38449 5.48899 8.48441 5.7054 8.48441H8.03806C8.25446 8.48441 8.45228 8.38449 8.58079 8.21023C8.70915 8.03602 8.74606 7.81754 8.68208 7.61078C8.52681 7.10938 8.18169 6.71148 7.73919 6.48496C7.89235 6.2943 7.98431 6.05246 7.98431 5.78941C7.98431 5.17594 7.48524 4.67688 6.87177 4.67688C6.25829 4.67688 5.75915 5.17602 5.75915 5.78945ZM8.08501 7.79566C8.09071 7.8141 8.08907 7.82391 8.07767 7.83941C8.06606 7.85512 8.05751 7.85945 8.03802 7.85945H5.70536C5.68587 7.85945 5.67731 7.85516 5.66579 7.83949C5.65431 7.82395 5.65267 7.81414 5.65837 7.7957C5.82388 7.26117 6.31146 6.90207 6.87169 6.90207C7.43192 6.90207 7.91946 7.26117 8.08501 7.79566ZM6.87169 5.30191C7.14052 5.30191 7.35923 5.52063 7.35923 5.78945C7.35923 6.05832 7.14048 6.27703 6.87169 6.27703C6.6029 6.27703 6.38415 6.05832 6.38415 5.78945C6.38415 5.52063 6.60286 5.30191 6.87169 5.30191ZM7.73915 10.8588C7.89231 10.6681 7.98427 10.4263 7.98427 10.1633C7.98427 9.5498 7.48521 9.05074 6.87173 9.05074C6.25825 9.05074 5.75919 9.54984 5.75919 10.1633C5.75919 10.4263 5.85114 10.6681 6.00431 10.8588C5.56181 11.0853 5.21665 11.4832 5.06142 11.9846C4.99739 12.1914 5.03431 12.4098 5.16278 12.5841C5.29122 12.7583 5.48903 12.8582 5.70544 12.8582H8.0381C8.2545 12.8582 8.45231 12.7583 8.58083 12.5841C8.70923 12.4098 8.74614 12.1913 8.68212 11.9846C8.52677 11.4832 8.18161 11.0853 7.73915 10.8588ZM6.87169 9.6757C7.14052 9.6757 7.35923 9.89441 7.35923 10.1632C7.35923 10.4321 7.14048 10.6508 6.87169 10.6508C6.6029 10.6508 6.38415 10.4321 6.38415 10.1632C6.38415 9.89441 6.60286 9.6757 6.87169 9.6757ZM8.07763 12.2132C8.06603 12.2289 8.05751 12.2332 8.03798 12.2332H5.70532C5.68579 12.2332 5.67728 12.2289 5.66575 12.2132C5.65427 12.1977 5.65263 12.1879 5.65833 12.1695C5.82384 11.6349 6.31146 11.2758 6.87165 11.2758C7.43188 11.2758 7.91946 11.635 8.08501 12.1695C8.09067 12.1879 8.08903 12.1977 8.07763 12.2132ZM7.73915 15.2326C7.89231 15.0419 7.98427 14.8001 7.98427 14.5371C7.98427 13.9236 7.48521 13.4245 6.87173 13.4245C6.25825 13.4245 5.75919 13.9236 5.75919 14.5371C5.75919 14.8001 5.85114 15.0419 6.00431 15.2326C5.56181 15.4591 5.21665 15.857 5.06142 16.3584C4.99739 16.5652 5.03435 16.7837 5.16278 16.9579C5.29122 17.1321 5.48903 17.232 5.70544 17.232H8.0381C8.2545 17.232 8.45231 17.1321 8.58083 16.9579C8.70919 16.7836 8.7461 16.5652 8.68212 16.3584C8.52677 15.857 8.18161 15.4591 7.73915 15.2326ZM6.87169 14.0495C7.14052 14.0495 7.35923 14.2682 7.35923 14.537C7.35923 14.8059 7.14048 15.0246 6.87169 15.0246C6.6029 15.0246 6.38415 14.8059 6.38415 14.537C6.38415 14.2682 6.60286 14.0495 6.87169 14.0495ZM8.07763 16.587C8.06603 16.6027 8.05751 16.607 8.03798 16.607H5.70532C5.68579 16.607 5.67728 16.6027 5.66575 16.587C5.65427 16.5715 5.65263 16.5617 5.65833 16.5432C5.82384 16.0087 6.31146 15.6496 6.87165 15.6496C7.43188 15.6496 7.91946 16.0087 8.08501 16.5432C8.09067 16.5617 8.08903 16.5715 8.07763 16.587Z" fill="black"/>
</g>
</g>
</svg>
