<svg width="8" height="8" viewBox="0 0 8 8" fill="none" xmlns="http://www.w3.org/2000/svg">
<path id="Union" fill-rule="evenodd" clip-rule="evenodd" d="M7.29032 1.72207C7.56989 1.44251 7.56989 0.98924 7.29032 0.709674C7.01075 0.430109 6.55748 0.430109 6.27791 0.709674L3.99999 2.98758L1.72214 0.709743C1.44257 0.430177 0.989301 0.430177 0.709733 0.709743C0.430164 0.989309 0.430165 1.44257 0.709733 1.72214L2.98759 3.99997L0.709676 6.27786C0.430108 6.55743 0.430108 7.01069 0.709676 7.29026C0.989245 7.56982 1.44251 7.56982 1.72208 7.29026L3.99999 5.01237L6.27797 7.29033C6.55754 7.56989 7.01081 7.56989 7.29038 7.29033C7.56995 7.01076 7.56995 6.5575 7.29038 6.27793L5.0124 3.99997L7.29032 1.72207Z" fill="#FB4E4E"/>
</svg>
