<svg width="20" height="21" viewBox="0 0 20 21" fill="none" xmlns="http://www.w3.org/2000/svg">
<g id="Frame" clip-path="url(#clip0_140_8142)">
<path id="Vector" d="M13.3929 11.8125H15.1786C15.3207 11.8125 15.4569 11.7606 15.5574 11.6683C15.6578 11.576 15.7143 11.4508 15.7143 11.3203V9.67969C15.7143 9.54915 15.6578 9.42396 15.5574 9.33166C15.4569 9.23936 15.3207 9.1875 15.1786 9.1875H13.3929C13.2508 9.1875 13.1145 9.23936 13.0141 9.33166C12.9136 9.42396 12.8571 9.54915 12.8571 9.67969V11.3203C12.8571 11.4508 12.9136 11.576 13.0141 11.6683C13.1145 11.7606 13.2508 11.8125 13.3929 11.8125ZM8.57143 11.3203V9.67969C8.57143 9.54915 8.62787 9.42396 8.72834 9.33166C8.8288 9.23936 8.96506 9.1875 9.10714 9.1875H10.8929C11.0349 9.1875 11.1712 9.23936 11.2717 9.33166C11.3721 9.42396 11.4286 9.54915 11.4286 9.67969V11.3203C11.4286 11.4508 11.3721 11.576 11.2717 11.6683C11.1712 11.7606 11.0349 11.8125 10.8929 11.8125H9.10714C8.96506 11.8125 8.8288 11.7606 8.72834 11.6683C8.62787 11.576 8.57143 11.4508 8.57143 11.3203ZM4.28571 11.3203V9.67969C4.28571 9.54915 4.34215 9.42396 4.44262 9.33166C4.54309 9.23936 4.67935 9.1875 4.82143 9.1875H6.60714C6.74922 9.1875 6.88548 9.23936 6.98595 9.33166C7.08642 9.42396 7.14286 9.54915 7.14286 9.67969V11.3203C7.14286 11.4508 7.08642 11.576 6.98595 11.6683C6.88548 11.7606 6.74922 11.8125 6.60714 11.8125H4.82143C4.67935 11.8125 4.54309 11.7606 4.44262 11.6683C4.34215 11.576 4.28571 11.4508 4.28571 11.3203ZM8.57143 15.2578V13.6172C8.57143 13.4867 8.62787 13.3615 8.72834 13.2692C8.8288 13.1769 8.96506 13.125 9.10714 13.125H10.8929C11.0349 13.125 11.1712 13.1769 11.2717 13.2692C11.3721 13.3615 11.4286 13.4867 11.4286 13.6172V15.2578C11.4286 15.3883 11.3721 15.5135 11.2717 15.6058C11.1712 15.6981 11.0349 15.75 10.8929 15.75H9.10714C8.96506 15.75 8.8288 15.6981 8.72834 15.6058C8.62787 15.5135 8.57143 15.3883 8.57143 15.2578ZM12.8571 15.2578V13.6172C12.8571 13.4867 12.9136 13.3615 13.0141 13.2692C13.1145 13.1769 13.2508 13.125 13.3929 13.125H15.1786C15.3207 13.125 15.4569 13.1769 15.5574 13.2692C15.6578 13.3615 15.7143 13.4867 15.7143 13.6172V15.2578C15.7143 15.3883 15.6578 15.5135 15.5574 15.6058C15.4569 15.6981 15.3207 15.75 15.1786 15.75H13.3929C13.2508 15.75 13.1145 15.6981 13.0141 15.6058C12.9136 15.5135 12.8571 15.3883 12.8571 15.2578ZM4.28571 15.2578V13.6172C4.28571 13.4867 4.34215 13.3615 4.44262 13.2692C4.54309 13.1769 4.67935 13.125 4.82143 13.125H6.60714C6.74922 13.125 6.88548 13.1769 6.98595 13.2692C7.08642 13.3615 7.14286 13.4867 7.14286 13.6172V15.2578C7.14286 15.3883 7.08642 15.5135 6.98595 15.6058C6.88548 15.6981 6.74922 15.75 6.60714 15.75H4.82143C4.67935 15.75 4.54309 15.6981 4.44262 15.6058C4.34215 15.5135 4.28571 15.3883 4.28571 15.2578ZM0 4.59375V19.0312C0 19.5534 0.225763 20.0542 0.627628 20.4234C1.02949 20.7926 1.57454 21 2.14286 21H17.8571C18.4255 21 18.9705 20.7926 19.3724 20.4234C19.7742 20.0542 20 19.5534 20 19.0312V4.59375C20 4.07161 19.7742 3.57085 19.3724 3.20163C18.9705 2.83242 18.4255 2.625 17.8571 2.625H15.7143V0.492188C15.7143 0.361651 15.6578 0.236461 15.5574 0.144158C15.4569 0.0518553 15.3207 0 15.1786 0L13.3929 0C13.2508 0 13.1145 0.0518553 13.0141 0.144158C12.9136 0.236461 12.8571 0.361651 12.8571 0.492188V2.625H7.14286V0.492188C7.14286 0.361651 7.08642 0.236461 6.98595 0.144158C6.88548 0.0518553 6.74922 0 6.60714 0L4.82143 0C4.67935 0 4.54309 0.0518553 4.44262 0.144158C4.34215 0.236461 4.28571 0.361651 4.28571 0.492188V2.625H2.14286C1.57454 2.625 1.02949 2.83242 0.627628 3.20163C0.225763 3.57085 0 4.07161 0 4.59375ZM2.14286 18.7852V6.5625H17.8571V18.7852C17.8571 18.8504 17.8289 18.913 17.7787 18.9592C17.7285 19.0053 17.6603 19.0312 17.5893 19.0312H2.41071C2.33967 19.0312 2.27154 19.0053 2.22131 18.9592C2.17108 18.913 2.14286 18.8504 2.14286 18.7852Z" fill="#2F8CAE"/>
</g>
<defs>
<clipPath id="clip0_140_8142">
<rect width="20" height="21" fill="white" transform="matrix(-1 0 0 1 20 0)"/>
</clipPath>
</defs>
</svg>
