<svg width="20" height="20" viewBox="0 0 20 20" fill="none" xmlns="http://www.w3.org/2000/svg">
<g id="Group">
<path id="Vector" d="M1.48649 16H1.59461L6.81081 14.8648C6.9124 14.8479 7.00656 14.8008 7.08105 14.7297L15.9188 5.89193C16.2384 5.57302 16.4914 5.19374 16.6631 4.77616C16.8347 4.35858 16.9217 3.91103 16.9188 3.45954C16.92 2.54048 16.561 1.65756 15.9188 1.00009C15.5999 0.680482 15.2206 0.427482 14.803 0.255811C14.3854 0.084141 13.9379 -0.00277153 13.4864 0.000130458C13.0323 -0.00389235 12.5822 0.0851604 12.1639 0.261796C11.7455 0.438431 11.3678 0.698904 11.054 1.02715L2.24321 9.86488C2.16549 9.92741 2.10888 10.0123 2.08104 10.1081L0.945954 15.3243C0.930665 15.4166 0.937384 15.5113 0.965565 15.6005C0.993746 15.6897 1.04259 15.7711 1.10813 15.8378C1.20794 15.9397 1.34393 15.9979 1.48649 16ZM13.4864 1.08121C14.785 1.0811 15.8378 2.13378 15.8379 3.43238L15.8377 3.45954C15.8421 3.7657 15.7845 4.06958 15.6684 4.3529C15.5523 4.63622 15.38 4.89312 15.1621 5.10816L11.8378 1.75681C12.0546 1.54131 12.3119 1.3707 12.5948 1.25477C12.8777 1.13884 13.1807 1.07986 13.4864 1.08121ZM11.081 2.54064L14.4053 5.86493L6.70264 13.5405L3.37835 10.2432L11.081 2.54064ZM2.94593 11.3244L5.62156 14L2.18915 14.7568L2.94593 11.3244ZM18.6485 18.9189H0.540538C0.241998 18.9189 0 19.1609 0 19.4594C0 19.758 0.241998 20 0.540538 20H18.6485C18.9471 20 19.1891 19.758 19.1891 19.4594C19.1891 19.1609 18.9471 18.9189 18.6485 18.9189Z" fill="#00B2EE"/>
</g>
</svg>
