<svg width="30" height="30" viewBox="0 0 30 30" fill="none" xmlns="http://www.w3.org/2000/svg">
<g id="Frame">
<g id="Group">
<g id="Layer 2">
<path id="Vector" d="M18.0623 5.00016C17.7443 4.47216 17.2952 4.03535 16.7586 3.73212C16.222 3.42888 15.6161 3.26953 14.9998 3.26953C14.3834 3.26953 13.7775 3.42888 13.2409 3.73212C12.7043 4.03535 12.2553 4.47216 11.9373 5.00016L2.08727 21.0877C1.75698 21.6314 1.57722 22.2532 1.56643 22.8893C1.55564 23.5254 1.71421 24.153 2.02587 24.7076C2.33754 25.2622 2.79109 25.724 3.34004 26.0456C3.88898 26.3672 4.51357 26.537 5.14977 26.5377H24.8498C25.486 26.537 26.1106 26.3672 26.6595 26.0456C27.2085 25.724 27.662 25.2622 27.9737 24.7076C28.2853 24.153 28.4439 23.5254 28.4331 22.8893C28.4223 22.2532 28.2426 21.6314 27.9123 21.0877L18.0623 5.00016Z" fill="#ED4040"/>
<g id="Group_2">
<path id="Vector_2" d="M15 18.4375C14.7524 18.4343 14.5158 18.3345 14.3407 18.1593C14.1655 17.9842 14.0657 17.7476 14.0625 17.5V11.875C14.0625 11.6264 14.1613 11.3879 14.3371 11.2121C14.5129 11.0363 14.7514 10.9375 15 10.9375C15.2486 10.9375 15.4871 11.0363 15.6629 11.2121C15.8387 11.3879 15.9375 11.6264 15.9375 11.875V17.5C15.9343 17.7476 15.8345 17.9842 15.6593 18.1593C15.4842 18.3345 15.2476 18.4343 15 18.4375Z" fill="white" fill-opacity="0.9"/>
<path id="Vector_3" d="M15 21.875C15.6904 21.875 16.25 21.3154 16.25 20.625C16.25 19.9346 15.6904 19.375 15 19.375C14.3096 19.375 13.75 19.9346 13.75 20.625C13.75 21.3154 14.3096 21.875 15 21.875Z" fill="white" fill-opacity="0.9"/>
</g>
</g>
</g>
</g>
</svg>
