<svg width="20" height="20" viewBox="0 0 20 20" fill="none" xmlns="http://www.w3.org/2000/svg">
<g id="Frame" clip-path="url(#clip0_375_7636)">
<g id="Group">
<path id="Vector" d="M10.4105 3.33946C9.71126 2.6402 8.82034 2.164 7.85044 1.97107C6.88053 1.77815 5.8752 1.87717 4.96157 2.25561C4.04795 2.63405 3.26705 3.27491 2.71765 4.09715C2.16824 4.9194 1.875 5.8861 1.875 6.875C1.875 7.86391 2.16824 8.83061 2.71765 9.65285C3.26705 10.4751 4.04795 11.116 4.96157 11.4944C5.8752 11.8728 6.88053 11.9719 7.85044 11.7789C8.82034 11.586 9.71126 11.1098 10.4105 10.4105C10.8787 9.94847 11.2505 9.39799 11.5043 8.79106C11.758 8.18413 11.8887 7.53284 11.8887 6.875C11.8887 6.21716 11.758 5.56587 11.5043 4.95895C11.2505 4.35202 10.8787 3.80153 10.4105 3.33946ZM9.96872 9.96875C9.25304 10.6845 8.31133 11.13 7.30403 11.2292C6.29674 11.3285 5.28618 11.0754 4.44456 10.5131C3.60293 9.95085 2.98231 9.11413 2.68844 8.14556C2.39456 7.17699 2.44561 6.13648 2.8329 5.20133C3.22018 4.26618 3.91974 3.49424 4.81237 3.01704C5.70499 2.53985 6.73547 2.38693 7.72821 2.58433C8.72095 2.78172 9.61453 3.31723 10.2567 4.09961C10.8989 4.88199 11.2499 5.86283 11.25 6.875C11.2516 7.44978 11.1392 8.01918 10.9193 8.55022C10.6993 9.08127 10.3763 9.56342 9.96872 9.96875Z" fill="url(#paint0_linear_375_7636)"/>
<path id="Vector_2" d="M19.5651 16.4719L13.7249 10.6316C13.6959 10.6026 13.6615 10.5795 13.6236 10.5638C13.5857 10.548 13.545 10.5399 13.504 10.5399C13.463 10.5399 13.4223 10.548 13.3844 10.5638C13.3465 10.5795 13.3121 10.6026 13.2831 10.6316L13.062 10.8523L12.4882 10.2785C13.3199 8.90652 13.6203 7.27739 13.3326 5.69898C13.0449 4.12057 12.189 2.7022 10.9267 1.71192C9.66436 0.72163 8.08302 0.228015 6.48149 0.324349C4.87997 0.420684 3.3692 1.1003 2.23467 2.23476C-0.324317 4.79335 -0.324317 8.95663 2.23467 11.5152C3.27355 12.5535 4.63048 13.2136 6.08861 13.39C7.54675 13.5664 9.02193 13.2489 10.2784 12.4883L10.8522 13.0621L10.6315 13.2832C10.6024 13.3122 10.5794 13.3466 10.5636 13.3845C10.5479 13.4224 10.5397 13.463 10.5397 13.5041C10.5397 13.5451 10.5479 13.5858 10.5636 13.6237C10.5794 13.6616 10.6024 13.696 10.6315 13.725L16.4718 19.5652C16.5007 19.5943 16.5352 19.6174 16.5731 19.6332C16.611 19.6489 16.6516 19.657 16.6927 19.657C16.7337 19.657 16.7744 19.6489 16.8123 19.6332C16.8502 19.6174 16.8846 19.5943 16.9136 19.5652L19.5651 16.9137C19.5942 16.8847 19.6173 16.8503 19.633 16.8124C19.6487 16.7744 19.6568 16.7338 19.6568 16.6928C19.6568 16.6517 19.6487 16.6111 19.633 16.5732C19.6173 16.5353 19.5942 16.5008 19.5651 16.4719ZM6.8749 12.8125C6.09486 12.8146 5.32215 12.662 4.60148 12.3635C3.88082 12.065 3.22652 11.6265 2.67646 11.0734C0.36123 8.75859 0.36123 4.9914 2.67646 2.67656C3.2274 2.12333 3.88204 1.6842 4.6029 1.3843C5.32376 1.08439 6.09669 0.929606 6.87745 0.928797C7.65821 0.927988 8.43146 1.08117 9.15294 1.37958C9.87442 1.67799 10.53 2.11577 11.082 2.66785C11.6341 3.21993 12.0719 3.87547 12.3703 4.59695C12.6687 5.31843 12.8219 6.09169 12.8211 6.87245C12.8203 7.6532 12.6655 8.42614 12.3656 9.147C12.0657 9.86786 11.6266 10.5225 11.0733 11.0734C10.5233 11.6265 9.86899 12.065 9.14832 12.3635C8.42766 12.662 7.65494 12.8146 6.8749 12.8125ZM12.178 10.8523L12.6202 11.2945L11.2944 12.6203L10.8522 12.1781L12.178 10.8523ZM16.6925 18.9023L11.2944 13.5043L13.5042 11.2945L18.9022 16.6926L16.6925 18.9023Z" fill="url(#paint1_linear_375_7636)"/>
</g>
</g>
<defs>
<linearGradient id="paint0_linear_375_7636" x1="-3.15987" y1="16.9098" x2="17.6768" y2="-3.92683" gradientUnits="userSpaceOnUse">
<stop stop-color="#003F8A"/>
<stop offset="0.518" stop-color="#00D7DF"/>
<stop offset="1" stop-color="#006DF0"/>
</linearGradient>
<linearGradient id="paint1_linear_375_7636" x1="0.202168" y1="20.2719" x2="21.0388" y2="-0.564733" gradientUnits="userSpaceOnUse">
<stop stop-color="#003F8A"/>
<stop offset="0.518" stop-color="#00D7DF"/>
<stop offset="1" stop-color="#006DF0"/>
</linearGradient>
<clipPath id="clip0_375_7636">
<rect width="20" height="20" fill="white"/>
</clipPath>
</defs>
</svg>
