<svg width="15" height="15" viewBox="0 0 15 15" fill="none" xmlns="http://www.w3.org/2000/svg">
<g id="Frame" clip-path="url(#clip0_448_8332)">
<g id="Group">
<path id="Vector" d="M9.91914 8.51248C9.91914 9.84645 8.83397 10.9316 7.5 10.9316C6.16603 10.9316 5.08127 9.84645 5.08127 8.51248C5.08127 7.17851 6.16603 6.09334 7.5 6.09334C8.83397 6.09334 9.91914 7.17893 9.91914 8.51248ZM15 5.07742V11.9484C15 12.3883 14.8252 12.8102 14.5142 13.1212C14.2031 13.4323 13.7813 13.607 13.3414 13.607H1.65865C1.21875 13.607 0.796865 13.4323 0.485807 13.1212C0.17475 12.8102 0 12.3883 0 11.9484V5.07742C0 4.63751 0.17475 4.21563 0.485807 3.90457C0.796865 3.59352 1.21875 3.41877 1.65865 3.41877H3.69879V2.84487C3.69879 2.45996 3.8517 2.09081 4.12387 1.81864C4.39605 1.54646 4.76519 1.39355 5.15011 1.39355H9.84989C10.2348 1.39355 10.604 1.54646 10.8761 1.81864C11.1483 2.09081 11.3012 2.45996 11.3012 2.84487V3.41835H13.3414C14.2573 3.41877 15 4.16143 15 5.07742ZM11.1631 8.51248C11.1631 6.49266 9.51982 4.84935 7.5 4.84935C5.48059 4.84935 3.83729 6.49266 3.83729 8.51248C3.83729 10.5323 5.48059 12.1756 7.5 12.1756C9.51982 12.1756 11.1631 10.5323 11.1631 8.51248Z" fill="#2F2F2F"/>
</g>
</g>
<defs>
<clipPath id="clip0_448_8332">
<rect width="15" height="15" fill="white"/>
</clipPath>
</defs>
</svg>
