<svg width="44" height="44" viewBox="0 0 44 44" fill="none" xmlns="http://www.w3.org/2000/svg">
<g id="pdf icon">
<path id="Vector" d="M16.5002 18.3337H18.3335C18.8197 18.3337 19.286 18.1405 19.6299 17.7967C19.9737 17.4529 20.1668 16.9866 20.1668 16.5003C20.1668 16.0141 19.9737 15.5478 19.6299 15.204C19.286 14.8601 18.8197 14.667 18.3335 14.667H16.5002C16.0139 14.667 15.5476 14.8601 15.2038 15.204C14.86 15.5478 14.6668 16.0141 14.6668 16.5003C14.6668 16.9866 14.86 17.4529 15.2038 17.7967C15.5476 18.1405 16.0139 18.3337 16.5002 18.3337ZM16.5002 22.0003C16.0139 22.0003 15.5476 22.1935 15.2038 22.5373C14.86 22.8811 14.6668 23.3474 14.6668 23.8337C14.6668 24.3199 14.86 24.7862 15.2038 25.13C15.5476 25.4738 16.0139 25.667 16.5002 25.667H27.5002C27.9864 25.667 28.4527 25.4738 28.7965 25.13C29.1403 24.7862 29.3335 24.3199 29.3335 23.8337C29.3335 23.3474 29.1403 22.8811 28.7965 22.5373C28.4527 22.1935 27.9864 22.0003 27.5002 22.0003H16.5002ZM36.6668 16.3903C36.6477 16.2219 36.6109 16.056 36.5568 15.8953V15.7303C36.4687 15.5418 36.3511 15.3685 36.2085 15.217L25.2085 4.21699C25.0569 4.07439 24.8837 3.95681 24.6952 3.86866C24.6404 3.86089 24.5849 3.86089 24.5302 3.86866C24.3439 3.76185 24.1382 3.69329 23.9252 3.66699H12.8335C11.3748 3.66699 9.97586 4.24646 8.94441 5.27791C7.91296 6.30936 7.3335 7.7083 7.3335 9.16699V34.8337C7.3335 36.2924 7.91296 37.6913 8.94441 38.7227C9.97586 39.7542 11.3748 40.3337 12.8335 40.3337H31.1668C32.6255 40.3337 34.0245 39.7542 35.0559 38.7227C36.0874 37.6913 36.6668 36.2924 36.6668 34.8337V16.5003V16.3903ZM25.6668 9.91866L30.4152 14.667H27.5002C27.0139 14.667 26.5476 14.4738 26.2038 14.13C25.86 13.7862 25.6668 13.3199 25.6668 12.8337V9.91866ZM33.0002 34.8337C33.0002 35.3199 32.807 35.7862 32.4632 36.13C32.1194 36.4738 31.6531 36.667 31.1668 36.667H12.8335C12.3473 36.667 11.8809 36.4738 11.5371 36.13C11.1933 35.7862 11.0002 35.3199 11.0002 34.8337V9.16699C11.0002 8.68076 11.1933 8.21445 11.5371 7.87063C11.8809 7.52681 12.3473 7.33366 12.8335 7.33366H22.0002V12.8337C22.0002 14.2923 22.5796 15.6913 23.6111 16.7227C24.6425 17.7542 26.0415 18.3337 27.5002 18.3337H33.0002V34.8337ZM27.5002 29.3337H16.5002C16.0139 29.3337 15.5476 29.5268 15.2038 29.8706C14.86 30.2144 14.6668 30.6808 14.6668 31.167C14.6668 31.6532 14.86 32.1195 15.2038 32.4634C15.5476 32.8072 16.0139 33.0003 16.5002 33.0003H27.5002C27.9864 33.0003 28.4527 32.8072 28.7965 32.4634C29.1403 32.1195 29.3335 31.6532 29.3335 31.167C29.3335 30.6808 29.1403 30.2144 28.7965 29.8706C28.4527 29.5268 27.9864 29.3337 27.5002 29.3337Z" fill="white"/>
</g>
</svg>
