<svg width="20" height="19" viewBox="0 0 20 19" fill="none" xmlns="http://www.w3.org/2000/svg">
<g id="reset icon">
<path id="Vector" d="M15.0375 14.0247L18 8.9995L15.7536 9.19157C15.7536 9.17236 15.7519 9.15316 15.7502 9.13395C15.3233 5.63657 12.3781 3 8.90091 3C5.095 3 2 6.13944 2 10C2 13.8606 5.095 17 8.90091 17C10.0232 17 11.1387 16.7206 12.125 16.1898C12.6707 15.8965 12.879 15.2103 12.5915 14.655C12.3023 14.1015 11.6258 13.8902 11.0784 14.1818C10.4037 14.5433 9.67208 14.7284 8.90091 14.7284C6.32921 14.7284 4.23776 12.6069 4.23776 9.99825C4.23776 7.38962 6.32921 5.26989 8.90091 5.26989C11.242 5.26989 13.2232 7.03517 13.5228 9.38189L11.2902 9.57221L15.0358 14.0264L15.0375 14.0247Z" fill="white"/>
</g>
</svg>
