<svg width="19" height="23" viewBox="0 0 19 23" fill="none" xmlns="http://www.w3.org/2000/svg">
<path d="M17.0409 5.71751H1.95907C1.91697 5.71753 1.87532 5.72611 1.83664 5.74274C1.79796 5.75937 1.76308 5.7837 1.7341 5.81424C1.70499 5.84482 1.68242 5.88101 1.66777 5.92061C1.65313 5.96021 1.64671 6.00238 1.64893 6.04454L2.44142 21.3359C2.47648 22.0161 3.03737 22.549 3.71892 22.549H15.281C15.9626 22.549 16.5235 22.0161 16.5585 21.3359L17.351 6.04454C17.3532 6.00238 17.3468 5.96021 17.3322 5.92061C17.3175 5.88101 17.2949 5.84482 17.2658 5.81424C17.2369 5.78369 17.202 5.75936 17.1633 5.74273C17.1247 5.7261 17.083 5.71752 17.0409 5.71751ZM4.57669 8.80018C4.57095 8.59209 4.64683 8.39371 4.79059 8.24195C4.93435 8.0902 5.12828 8.00324 5.33637 7.99702C5.76942 7.98814 6.12886 8.32802 6.1413 8.75759L6.4293 19.4917C6.43249 19.5943 6.41522 19.6966 6.3785 19.7925C6.34178 19.8884 6.28634 19.9761 6.2154 20.0504C6.14481 20.125 6.0602 20.1851 5.9664 20.227C5.8726 20.269 5.77145 20.292 5.66873 20.2949H5.64569C5.44554 20.2949 5.25604 20.219 5.10921 20.0797C5.03462 20.0093 4.97466 19.9249 4.93278 19.8313C4.8909 19.7378 4.86792 19.6368 4.86517 19.5343L4.57669 8.80018ZM8.7177 19.5009V8.76552C8.7177 8.33376 9.06872 7.98274 9.5 7.98274C9.93128 7.98274 10.2823 8.33376 10.2823 8.76552V19.5009C10.2823 19.9331 9.93128 20.2846 9.5 20.2846C9.06872 20.2846 8.7177 19.9332 8.7177 19.5009ZM14.1348 19.5334C14.1322 19.636 14.1092 19.7371 14.0674 19.8309C14.0255 19.9246 13.9655 20.0091 13.8908 20.0796C13.744 20.2189 13.5545 20.2948 13.3543 20.2948H13.3299C13.2273 20.292 13.1263 20.2689 13.0327 20.2268C12.9391 20.1848 12.8548 20.1247 12.7845 20.0499C12.7135 19.9756 12.658 19.8878 12.6213 19.7918C12.5846 19.6959 12.5674 19.5935 12.5706 19.4908L12.8586 8.75848C12.8711 8.3285 13.2278 7.98636 13.6582 7.99702H13.6636C13.8717 8.00324 14.0656 8.0902 14.2093 8.24195C14.3531 8.39371 14.429 8.59209 14.4232 8.80018L14.1348 19.5334ZM18.5918 3.32527V4.14887H0.408203V3.32527C0.408203 2.87089 0.777822 2.50127 1.23221 2.50127H7.21338C7.28992 2.50124 7.36376 2.47296 7.42076 2.42186C7.47775 2.37076 7.51388 2.30043 7.52223 2.22435C7.63276 1.21352 8.48295 0.451172 9.5 0.451172C10.5171 0.451172 11.3672 1.21352 11.4778 2.22435C11.4861 2.30043 11.5223 2.37076 11.5792 2.42186C11.6362 2.47296 11.7101 2.50124 11.7866 2.50127H17.7678C18.2222 2.50127 18.5918 2.87089 18.5918 3.32527Z" fill="#FF0000"/>
</svg>
