<svg width="244" height="60" viewBox="0 0 244 60" fill="none" xmlns="http://www.w3.org/2000/svg">
<g id="tooltip" filter="url(#filter0_d_140_8114)">
<path fill-rule="evenodd" clip-rule="evenodd" d="M18.7475 16L22.1137 9L25.1059 16H223C226.314 16 229 18.6863 229 22V37C229 40.3137 226.314 43 223 43H17C13.6863 43 11 40.3137 11 37V22C11 18.6863 13.6863 16 17 16H18.7475Z" fill="white"/>
<path d="M22.1137 9L23.0332 8.60695C22.879 8.24619 22.5281 8.00893 22.1359 8.00025C21.7436 7.99156 21.3825 8.21304 21.2125 8.56662L22.1137 9ZM18.7475 16V17C19.1319 17 19.4822 16.7797 19.6488 16.4334L18.7475 16ZM25.1059 16L24.1864 16.393C24.3437 16.7612 24.7055 17 25.1059 17V16ZM21.2125 8.56662L17.8463 15.5666L19.6488 16.4334L23.0149 9.43338L21.2125 8.56662ZM26.0254 15.607L23.0332 8.60695L21.1942 9.39305L24.1864 16.393L26.0254 15.607ZM25.1059 17H223V15H25.1059V17ZM223 17C225.761 17 228 19.2386 228 22H230C230 18.134 226.866 15 223 15V17ZM228 22V37H230V22H228ZM228 37C228 39.7614 225.761 42 223 42V44C226.866 44 230 40.866 230 37H228ZM223 42H17V44H223V42ZM17 42C14.2386 42 12 39.7614 12 37H10C10 40.866 13.134 44 17 44V42ZM12 37V22H10V37H12ZM12 22C12 19.2386 14.2386 17 17 17V15C13.134 15 10 18.134 10 22H12ZM17 17H18.7475V15H17V17Z" fill="#F32121"/>
</g>
<defs>
<filter id="filter0_d_140_8114" x="0" y="0" width="244" height="60" filterUnits="userSpaceOnUse" color-interpolation-filters="sRGB">
<feFlood flood-opacity="0" result="BackgroundImageFix"/>
<feColorMatrix in="SourceAlpha" type="matrix" values="0 0 0 0 0 0 0 0 0 0 0 0 0 0 0 0 0 0 127 0" result="hardAlpha"/>
<feOffset dx="2" dy="4"/>
<feGaussianBlur stdDeviation="6"/>
<feComposite in2="hardAlpha" operator="out"/>
<feColorMatrix type="matrix" values="0 0 0 0 0 0 0 0 0 0 0 0 0 0 0 0 0 0 0.16 0"/>
<feBlend mode="normal" in2="BackgroundImageFix" result="effect1_dropShadow_140_8114"/>
<feBlend mode="normal" in="SourceGraphic" in2="effect1_dropShadow_140_8114" result="shape"/>
</filter>
</defs>
</svg>
