<svg width="8" height="7" viewBox="0 0 8 7" fill="none" xmlns="http://www.w3.org/2000/svg">
<g id="uil:multiply">
<path id="Vector" d="M4.47002 3.19985L6.57002 1.52252C6.63279 1.47231 6.66805 1.4042 6.66805 1.33319C6.66805 1.26217 6.63279 1.19407 6.57002 1.14385C6.50725 1.09364 6.42212 1.06543 6.33335 1.06543C6.24459 1.06543 6.15946 1.09364 6.09669 1.14385L4.00002 2.82385L1.90335 1.14385C1.84059 1.09364 1.75545 1.06543 1.66669 1.06543C1.57792 1.06543 1.49279 1.09364 1.43002 1.14385C1.36725 1.19407 1.33199 1.26217 1.33199 1.33319C1.33199 1.4042 1.36725 1.47231 1.43002 1.52252L3.53002 3.19985L1.43002 4.87719C1.39878 4.90198 1.37398 4.93147 1.35706 4.96397C1.34013 4.99646 1.33142 5.03132 1.33142 5.06652C1.33142 5.10172 1.34013 5.13658 1.35706 5.16907C1.37398 5.20157 1.39878 5.23106 1.43002 5.25585C1.46101 5.28085 1.49788 5.30069 1.53849 5.31423C1.57911 5.32776 1.62268 5.33473 1.66669 5.33473C1.71069 5.33473 1.75426 5.32776 1.79488 5.31423C1.8355 5.30069 1.87237 5.28085 1.90335 5.25585L4.00002 3.57585L6.09669 5.25585C6.12768 5.28085 6.16454 5.30069 6.20516 5.31423C6.24578 5.32776 6.28935 5.33473 6.33335 5.33473C6.37736 5.33473 6.42093 5.32776 6.46155 5.31423C6.50217 5.30069 6.53903 5.28085 6.57002 5.25585C6.60126 5.23106 6.62606 5.20157 6.64298 5.16907C6.65991 5.13658 6.66862 5.10172 6.66862 5.06652C6.66862 5.03132 6.65991 4.99646 6.64298 4.96397C6.62606 4.93147 6.60126 4.90198 6.57002 4.87719L4.47002 3.19985Z" fill="#3B3B3B"/>
</g>
</svg>
