<svg width="16" height="16" viewBox="0 0 16 16" fill="none" xmlns="http://www.w3.org/2000/svg">
<path d="M12.707 8.84703V6.59914C12.7055 5.63374 12.3525 4.69453 11.7005 3.92115C11.0485 3.14778 10.1322 2.58154 9.08799 2.30661V1.41241C9.08799 1.03782 8.92008 0.678565 8.6212 0.413686C8.32232 0.148807 7.91695 0 7.49426 0C7.07158 0 6.66621 0.148807 6.36733 0.413686C6.06845 0.678565 5.90054 1.03782 5.90054 1.41241V2.30661C4.8563 2.58154 3.94007 3.14778 3.28804 3.92115C2.63601 4.69453 2.28301 5.63374 2.28152 6.59914V8.84512C2.28152 8.86114 2.24151 10.4795 0.362514 12.1653C0.187615 12.3234 0.0693205 12.5238 0.0224822 12.7413C-0.0243561 12.9588 0.00234927 13.1837 0.0992451 13.3878C0.196141 13.5919 0.358909 13.766 0.567114 13.8884C0.775319 14.0108 1.01968 14.076 1.26953 14.0757H4.91134C5.0171 14.6145 5.33406 15.103 5.80637 15.455C6.27867 15.8071 6.87602 16 7.49316 16C8.11029 16 8.7076 15.8069 9.17984 15.4548C9.65208 15.1027 9.96895 14.6142 10.0746 14.0753H13.719C13.9688 14.0755 14.213 14.0103 14.4211 13.888C14.6292 13.7656 14.7919 13.5915 14.8888 13.3875C14.9857 13.1835 15.0124 12.9586 14.9657 12.7412C14.9189 12.5238 14.8008 12.3234 14.626 12.1653C12.747 10.4798 12.707 8.86114 12.707 8.84703ZM6.76108 1.41241C6.76295 1.28464 6.80707 1.16017 6.88796 1.0544C6.96886 0.948623 7.08298 0.866201 7.21621 0.817335C7.34943 0.768469 7.4959 0.755304 7.63748 0.779472C7.77906 0.80364 7.90953 0.864078 8.01274 0.953303C8.33803 1.18972 8.20077 1.83149 8.22745 2.15141C7.73997 2.10646 7.24855 2.10646 6.76108 2.15141V1.41241ZM7.49297 15.2528C7.10233 15.2518 6.7232 15.1355 6.41544 14.9223C6.10768 14.709 5.88881 14.411 5.7934 14.0753H9.19255C9.09715 14.411 8.87835 14.7089 8.57068 14.9222C8.26301 15.1354 7.88354 15.2517 7.49297 15.2528ZM14.0972 13.0885C14.067 13.1552 14.0147 13.2124 13.9472 13.2524C13.8797 13.2924 13.8002 13.3134 13.719 13.3127C13.719 13.3127 3.36108 13.3142 1.26953 13.3127C1.18834 13.3134 1.1088 13.2924 1.04132 13.2524C0.973835 13.2124 0.921553 13.1552 0.891317 13.0885C0.859758 13.024 0.850843 12.9527 0.865733 12.8837C0.880624 12.8147 0.918629 12.7514 0.97479 12.7018C3.11754 10.7792 3.14207 8.92482 3.14207 8.84703V6.59914C3.14497 6.08766 3.2661 5.58213 3.49799 5.11374C3.72988 4.64535 4.06761 4.22404 4.49035 3.8758C4.91308 3.52757 5.41185 3.25979 5.95587 3.089C6.4999 2.91821 7.07765 2.84803 7.65347 2.88279C8.76513 2.8839 9.83091 3.27576 10.617 3.9724C11.403 4.66904 11.8452 5.61357 11.8465 6.59876V8.84665C11.8465 8.92444 11.871 10.7788 14.0137 12.7014C14.0699 12.751 14.1079 12.8144 14.1228 12.8833C14.1377 12.9523 14.1288 13.024 14.0972 13.0885ZM15.6109 2.9213C15.3827 2.48046 15.058 2.08414 14.6557 1.75529C14.2534 1.42644 13.7814 1.17161 13.2672 1.00554C13.2138 0.986567 13.1566 0.977291 13.099 0.978265C13.0414 0.979239 12.9847 0.990444 12.9321 1.01121C12.8795 1.03199 12.8321 1.0619 12.7928 1.09919C12.7535 1.13647 12.723 1.18037 12.7032 1.22828C12.6834 1.2762 12.6746 1.32715 12.6774 1.37811C12.6803 1.42908 12.6946 1.47903 12.7196 1.525C12.7446 1.57098 12.7797 1.61204 12.8229 1.64575C12.8661 1.67947 12.9166 1.70515 12.9712 1.72128C13.7909 1.99318 14.4567 2.54036 14.8243 3.24425C15.192 3.94815 15.2319 4.75208 14.9354 5.48187C14.896 5.57684 14.9008 5.68177 14.9488 5.77359C14.9967 5.86541 15.0838 5.9366 15.191 5.97149C15.2981 6.00638 15.4165 6.00212 15.5201 5.95964C15.6237 5.91716 15.7041 5.83995 15.7434 5.74498C15.9332 5.28995 16.0192 4.80607 15.9964 4.32137C15.9737 3.83668 15.8426 3.3608 15.6109 2.9213Z" fill="#FF0000"/>
</svg>
